<svg xmlns="http://www.w3.org/2000/svg" viewBox="0 0 480 480" width="24" height="24"><path d="M472 120a48.05 48.05 0 0 0-48 48v80a32 32 0 0 1-32 32h-24v-72a8 8 0 0 0-8-8h-16a8 8 0 0 1-8-8v-72a8 8 0 0 0-8-8h-8V8a8 8 0 0 0-8-8h-32a8 8 0 0 0-8 8v104h-64V8a8 8 0 0 0-8-8h-32a8 8 0 0 0-8 8v104h-8a8 8 0 0 0-8 8v72a8 8 0 0 1-8 8h-16a8 8 0 0 0-8 8v72H88a32 32 0 0 1-32-32v-80a48.05 48.05 0 0 0-48-48 8 8 0 0 0 0 16 32 32 0 0 1 32 32v80a48.05 48.05 0 0 0 48 48h24v176a8 8 0 0 0 8 8h240a8 8 0 0 0 8-8V296h24a48.05 48.05 0 0 0 48-48v-80a32 32 0 0 1 32-32 8 8 0 0 0 0-16zM288 16h16v96h-16zm-112 0h16v96h-16zm176 448H128V216h8a24 24 0 0 0 24-24v-64h160v64a24 24 0 0 0 24 24h8z"/><path d="M304 280H176a8 8 0 0 0-8 8v128a8 8 0 0 0 8 8h128a8 8 0 0 0 8-8V288a8 8 0 0 0-8-8zm-120 16h112v16H184zm112 112H184v-80h112zM184 176a8 8 0 0 0 8-8v-16a8 8 0 0 0-16 0v16a8 8 0 0 0 8 8zM296 176a8 8 0 0 0 8-8v-16a8 8 0 0 0-16 0v16a8 8 0 0 0 8 8z"/></svg>