<svg xmlns="http://www.w3.org/2000/svg" viewBox="0 0 479 479" width="24" height="24"><path d="M435.76 100.4C387.83 35.07 312 6.27 254.63 36c-1.82.94-3.54 2-5.24 3.11l-1.34.84a120.07 120.07 0 0 0-53.21 82.17 118.61 118.61 0 0 0-45.33 1.09c-43.39 9.17-86.72 40.51-116 87.74q-4.68 7.54-8.87 15.62A207.35 207.35 0 0 0 1.52 349.6c.08.56.12 1.14.21 1.7.13.8.16 1.7.3 2.54.57 3.35 1.38 6.54 2.13 9.76.15.67.27 1.35.43 2 1.07 4.34 2.34 8.52 3.74 12.6.08.24.14.48.23.71a114 114 0 0 0 48.5 61.84l1.66 1c1.3.84 2.62 1.66 4 2.4a106 106 0 0 0 49.05 11.68c56 0 116.61-40.35 150.76-106.34A232.52 232.52 0 0 0 273.72 324a151.15 151.15 0 0 0 93 36 107.31 107.31 0 0 0 49.57-11.85c1.4-.73 2.71-1.56 4-2.4l1.6-1a114 114 0 0 0 48.56-61.89c.07-.2.13-.42.2-.62 1.41-4.11 2.68-8.32 3.76-12.69.15-.61.26-1.26.41-1.88.76-3.26 1.59-6.47 2.14-9.86.14-.84.18-1.71.31-2.56.08-.51.11-1.05.18-1.6a207.13 207.13 0 0 0-23-123.09 229.66 229.66 0 0 0-18.69-30.16zm11 51.29c.7 1.6 1.28 3.2 1.92 4.8q1.84 4.51 3.51 9.08c.68 1.94 1.26 3.88 1.89 5.82.87 2.73 1.72 5.47 2.48 8.22.55 2 1 4 1.53 6.07.65 2.72 1.26 5.44 1.79 8.15.39 1.95.74 3.9 1.06 5.83.49 3 .89 5.92 1.22 8.86.19 1.6.4 3.25.55 4.88.32 3.78.53 7.54.62 11.3 0 .75.08 1.5.09 2.23a161.57 161.57 0 0 1-2.11 28c-.06.36-.14.72-.2 1.08-.67 3.82-1.48 7.53-2.4 11.19-.31 1.17-.65 2.32-1 3.48-.75 2.63-1.6 5.18-2.47 7.69-.62 1.71-1.25 3.4-1.94 5.06s-1.45 3.37-2.21 5c-1 2.15-2 4.29-3.14 6.34-.44.8-.93 1.6-1.4 2.4a97.7 97.7 0 0 1-18.69 23.42c.05-1 .06-2.06.06-3.1v-.67c0-1.69-.08-3.44-.23-5.21a12.18 12.18 0 0 0-.14-1.34q-.24-2.2-.66-4.5c-.08-.44-.14-.87-.24-1.31-.39-1.9-.89-3.84-1.51-5.84-.12-.38-.27-.76-.4-1.15-.56-1.67-1.22-3.4-2-5.15-.25-.58-.5-1.15-.76-1.73-1-2.17-2.09-4.37-3.41-6.65a68.19 68.19 0 0 0-38.52-31.38 54.09 54.09 0 0 1-36.69-63.52 69.88 69.88 0 0 0-46.45-80.39 52.72 52.72 0 0 1-30.76-24.55c-1-1.71-1.83-3.35-2.58-5-.25-.51-.42-1-.64-1.49-.46-1.06-.92-2.14-1.28-3.19-.21-.57-.37-1.13-.55-1.69-.29-.93-.57-1.85-.8-2.74a37.9 37.9 0 0 1-.37-1.72c-.18-.85-.34-1.7-.46-2.53q-.12-.86-.21-1.71c-.08-.8-.14-1.64-.18-2.47 0-.54-.06-1.09-.07-1.6v-2.42V56c.05-.9.12-1.81.2-2.72 0-.45.08-.89.12-1.35v-.23c.86-.48 1.6-1.06 2.51-1.51C319.7 20.33 399.67 59.7 440.22 138c2.4 4.47 4.53 9.07 6.53 13.69zm-146 172l-.49-.28c-.61-.38-1.22-.8-1.84-1.22a179.06 179.06 0 0 1-19.27-14.39 193.61 193.61 0 0 0 6-85.61c-6.48-38.61-25.59-68.84-54-86.31l-1.45-.91c-1.71-1.08-3.43-2.17-5.26-3.12a102.25 102.25 0 0 0-14.07-5.85c.33-1.77.69-3.53 1.08-5.25.15-.67.28-1.37.44-2 .71-2.9 1.52-5.73 2.4-8.51.14-.46.28-.91.43-1.37a105.41 105.41 0 0 1 28.45-45.35c0 .46.12.93.16 1.39.12 1.23.27 2.49.46 3.77q.19 1.27.45 2.58c.26 1.3.6 2.63 1 4 .24.87.46 1.75.74 2.63.48 1.49 1.07 3 1.7 4.57.32.8.58 1.6.94 2.4a77.79 77.79 0 0 0 3.73 7.34 68.19 68.19 0 0 0 38.51 31.37A54.1 54.1 0 0 1 327.52 187 69.89 69.89 0 0 0 374 267.43 54.19 54.19 0 0 1 410.7 331l-.29 2.17c-.49.26-.94.61-1.44.86-31.97 16.53-71.6 12.31-108.25-10.32zm-36.28-22.52c-.59 2.16-1.27 4.3-1.94 6.4-.75 2.4-1.49 4.8-2.33 7.19-1 2.7-2 5.38-3.11 8.06-.74 1.87-1.43 3.75-2.24 5.59-2 4.59-4.12 9.16-6.46 13.67a206.22 206.22 0 0 1-42.5 56.23c-1.72 1.6-3.41 3.31-5.17 4.8l-.19.15c-33.24 28.67-72.82 42-107.82 34.7a88.38 88.38 0 0 1-22.59-8c-.5-.25-.94-.6-1.44-.86l-.33-2.1a108.6 108.6 0 0 1-1.23-13.71 47.71 47.71 0 0 1 7.2-25.29 52.72 52.72 0 0 1 30.77-24.6 69.89 69.89 0 0 0 46.45-80.4 54.09 54.09 0 0 1 36.69-63.5 68.13 68.13 0 0 0 38.5-31.37 77.88 77.88 0 0 0 3.74-7.34c.36-.8.62-1.6.94-2.4.63-1.54 1.23-3.07 1.7-4.56.28-.89.5-1.75.74-2.63.36-1.35.7-2.69 1-4a60.64 60.64 0 0 0 .9-6.38c0-.45.14-.92.16-1.35a100.48 100.48 0 0 1 24 33.82c.29.65.59 1.31.87 2 1.12 2.62 2.13 5.32 3.07 8 .42 1.23.82 2.48 1.2 3.73.75 2.4 1.46 4.89 2.09 7.39.43 1.77.8 3.59 1.17 5.41.45 2.23.93 4.44 1.29 6.71s.62 4.89.88 7.34q.66 6.15.85 12.49c0 1.87.17 3.73.17 5.59 0 2.8-.18 5.64-.33 8.48-.09 1.66-.15 3.31-.28 5-.23 2.86-.58 5.74-1 8.63-.21 1.69-.44 3.39-.7 5.08-.44 2.82-1 5.65-1.54 8.49-.37 1.85-.8 3.7-1.22 5.6-.6 2.59-1.25 5.28-2 7.96zM31.13 390.76C30 388.71 29 386.57 28 384.44c-.8-1.65-1.53-3.32-2.23-5s-1.31-3.33-1.92-5c-.89-2.52-1.73-5.09-2.49-7.72-.33-1.15-.67-2.29-1-3.47-.93-3.63-1.75-7.35-2.4-11.19-.06-.35-.14-.7-.2-1.06a159.45 159.45 0 0 1-2.12-28c0-.73.07-1.49.09-2.23q.12-5.6.62-11.3c.14-1.6.35-3.26.54-4.88.34-2.95.74-5.9 1.23-8.86.32-1.93.67-3.88 1.05-5.83q.81-4.08 1.79-8.14c.49-2 1-4.06 1.54-6.09.75-2.75 1.6-5.47 2.48-8.2.62-1.95 1.2-3.89 1.88-5.83 1.08-3.05 2.29-6.07 3.51-9.09.65-1.59 1.23-3.19 1.92-4.79 2-4.62 4.15-9.22 6.5-13.75s4.76-8.71 7.3-12.9c.8-1.28 1.6-2.52 2.4-3.77q2.79-4.41 5.76-8.6c.9-1.27 1.8-2.55 2.72-3.79q3.36-4.54 6.92-8.79c.63-.76 1.23-1.6 1.87-2.31q4.51-5.3 9.29-10.14c.8-.8 1.6-1.6 2.45-2.4 2.44-2.41 4.93-4.72 7.46-7 1.08-.95 2.17-1.89 3.27-2.8 2.48-2.1 5-4.09 7.55-6 1-.73 1.91-1.48 2.88-2.17 3.5-2.52 7-4.91 10.63-7.1.41-.25.8-.46 1.24-.7 3.19-1.91 6.39-3.67 9.66-5.31 1.12-.56 2.25-1.08 3.38-1.6 2.67-1.25 5.33-2.41 8-3.48 1.15-.46 2.29-.93 3.45-1.36q4.84-1.78 9.73-3.19c.48-.14 1-.32 1.46-.45 3.72-1 7.46-1.78 11.19-2.4 1-.18 2-.27 3.07-.41 2.75-.39 5.47-.68 8.2-.84 1.2-.08 2.4-.13 3.6-.17 2.4-.07 4.75 0 7.1.12 1.6.06 3.19.11 4.79.26 2.31.22 4.58.59 6.86 1 1.49.24 3 .44 4.47.8 2.46.54 4.86 1.28 7.26 2 1.25.39 2.51.68 3.74 1.12a87.71 87.71 0 0 1 10.3 4.46l.29.13c.87.44 1.65 1 2.51 1.51v.23c0 .45.08.9.12 1.35.08.91.15 1.81.2 2.72 0 .51 0 1 .05 1.53V156a11.94 11.94 0 0 1-.07 1.6 23.17 23.17 0 0 1-.18 2.47c-.05.57-.13 1.14-.21 1.7-.12.8-.28 1.69-.45 2.54-.11.57-.23 1.14-.38 1.71-.22.9-.5 1.82-.8 2.75-.17.56-.33 1.12-.54 1.69-.37 1-.8 2.1-1.29 3.19-.21.5-.39 1-.63 1.49-.75 1.6-1.6 3.24-2.58 5a52.7 52.7 0 0 1-30.73 24.56 69.91 69.91 0 0 0-46.46 80.4A54.06 54.06 0 0 1 99 348.61 68.26 68.26 0 0 0 60.44 380c-1.32 2.28-2.4 4.49-3.41 6.65-.26.59-.51 1.16-.79 1.73-.76 1.76-1.42 3.49-2 5.17-.13.37-.28.76-.39 1.12a57.13 57.13 0 0 0-1.52 5.85c-.1.45-.16.87-.24 1.32-.28 1.53-.5 3-.66 4.49 0 .45-.1.9-.13 1.34-.15 1.79-.24 3.53-.24 5.22v.63c0 1.05 0 2.1.06 3.13a97.47 97.47 0 0 1-18.67-23.39c-.37-.88-.86-1.66-1.32-2.5z"/></svg>