<svg xmlns="http://www.w3.org/2000/svg" viewBox="0 0 480 480" width="24" height="24"><path d="M344 304H136a8 8 0 0 0-8 8v48a40.05 40.05 0 0 0 40 40h152c20 0 32-14.95 32-40v-48a8 8 0 0 0-8-8zm-8 56c0 24-12 24-16 24H168a24 24 0 0 1-24-24v-40h192z"/><path d="M232 360h16a8 8 0 0 0 0-16h-16a8 8 0 0 0 0 16z"/><path d="M448 432h-32V264a8 8 0 0 0-8-8h-69.56A87.9 87.9 0 0 0 376 184v-80a8 8 0 0 0-8-8h-88V72a8 8 0 0 0-8-8h-24V48h120a24 24 0 0 0 0-48h-16a24 24 0 0 0-24 24 23.75 23.75 0 0 0 1.47 8H240a8 8 0 0 0-8 8v24h-24a8 8 0 0 0-8 8v24h-88a8 8 0 0 0-8 8v80a87.93 87.93 0 0 0 37.6 72H72a8 8 0 0 0-8 8v168H32a8 8 0 0 0-8 8v32a8 8 0 0 0 8 8h416a8 8 0 0 0 8-8v-32a8 8 0 0 0-8-8zM344 24a8 8 0 0 1 8-8h16a8 8 0 0 1 0 16h-16a8 8 0 0 1-8-8zM216 80h48v16h-48zm-96 104v-72h240v72a72.07 72.07 0 0 1-72 72h-96a72.07 72.07 0 0 1-72-72zm-40 88h320v160H80zm360 192H40v-16h400z"/><path d="M344 136a8 8 0 0 0-8-8H144a8 8 0 0 0 0 16h192a8 8 0 0 0 8-8z"/></svg>