<svg xmlns="http://www.w3.org/2000/svg" viewBox="0 0 480 480" width="24" height="24"><path d="M242 0h-3.5a38.32 38.32 0 0 0-38.29 38.29V48H152a40.06 40.06 0 0 0-39.2 32H40a8 8 0 0 0-5.07 14.18l88.46 72.62L140.31 284a23.44 23.44 0 0 0 11.82 17.07V320h-8a8 8 0 0 0-7.95 7.12l-16 144a8 8 0 0 0 7.92 8.88h224.26a8 8 0 0 0 7.95-8.88l-16-144a8 8 0 0 0-7.95-7.12h-8v-18.92A23.45 23.45 0 0 0 340.15 284l22.53-156H384v160a34.15 34.15 0 0 0 32.8 32 32.94 32.94 0 0 0 31.2-32.37l-8.54-184.08A25.67 25.67 0 0 0 413 80h-45.8A40.07 40.07 0 0 0 328 48h-47.73v-9.71A38.32 38.32 0 0 0 242 0zm-25.81 38.29A22.3 22.3 0 0 1 238.48 16H242a22.31 22.31 0 0 1 22.29 22.29V48h-48.1zM156.87 96l9.45 85.34L62.35 96zm186.55 368H137l3.56-32H248a8 8 0 0 0 0-16H142.4l8.88-80h177.9zM168.13 320v-16h144.19v16zm156.19-38.29a7.11 7.11 0 0 1-6.95 6.29H163.08a7.13 7.13 0 0 1-6.94-6.3l-14.4-99.84 29.6 24.32a8 8 0 0 0 13-7.06L173 96h178.13zm99.15-177.42L432 288a16.92 16.92 0 0 1-15.2 16 18.61 18.61 0 0 1-16.8-16V120a8 8 0 0 0-8-8h-27l2.3-16H413a9.89 9.89 0 0 1 10.47 8.29zM350.63 80H129.36A24.06 24.06 0 0 1 152 64h176a24 24 0 0 1 22.63 16z"/><path d="M312 416h-32a8 8 0 0 0 0 16h32a8 8 0 0 0 0-16z"/></svg>