<svg xmlns="http://www.w3.org/2000/svg" viewBox="0 0 480 480" width="24" height="24"><path d="M472 0H8a8 8 0 0 0-8 8v96a8 8 0 0 0 8 8h24v320H8a8 8 0 0 0-8 8v32a8 8 0 0 0 8 8h464a8 8 0 0 0 8-8v-32a8 8 0 0 0-8-8h-24V112h24a8 8 0 0 0 8-8V8a8 8 0 0 0-8-8zm-8 464H16v-16h448zm-268.5-53.11L184.84 304H295.2l-10.65 106.45A24.53 24.53 0 0 1 260.89 432h-41.78a24.42 24.42 0 0 1-23.61-21.11zM308.05 336H320a16 16 0 0 1 16 16v16a16 16 0 0 1-16 16h-16.74zm124 96H292.22a43.71 43.71 0 0 0 8.19-19.52l1.25-12.48H320a32 32 0 0 0 32-32v-16a32 32 0 0 0-32-32h-10.35l2.35-23.2a8 8 0 0 0-8-8.8H176a8 8 0 0 0-8 8.8l11.6 116.14a42.8 42.8 0 0 0 8.11 19.06H48V112h112v40a8 8 0 0 0 8 8h16v8a40.05 40.05 0 0 0 40 40h32a39.82 39.82 0 0 0 31.79-16H336v8a8 8 0 0 0 8 8h64a8 8 0 0 0 8-8v-32a8 8 0 0 0-8-8h-64a8 8 0 0 0-8 8v8h-40.8a40.5 40.5 0 0 0 .8-8v-8h16a8 8 0 0 0 8-8v-40h112zM280 168a24 24 0 0 1-24 24h-32a24 24 0 0 1-24-24v-8h80zm-104-24v-32h128v32zm176 32h48v16h-48zm112-80H16V16h448z"/><path d="M64 80a24 24 0 1 0-24-24 24 24 0 0 0 24 24zm0-32a8 8 0 1 1-8 8 8 8 0 0 1 8-8zM200 80h80a8 8 0 0 0 8-8V40a8 8 0 0 0-8-8h-80a8 8 0 0 0-8 8v32a8 8 0 0 0 8 8zm8-32h64v16h-64zM380 48h32a8 8 0 0 0 0-16h-32a8 8 0 0 0 0 16zM380 80h32a8 8 0 0 0 0-16h-32a8 8 0 0 0 0 16z"/></svg>