<svg xmlns="http://www.w3.org/2000/svg" viewBox="0 0 479 479" width="24" height="24"><path d="M122.86 473.87a8 8 0 0 0 7.45 5.13h229.53a8 8 0 0 0 7.57-5.45l64.27-191.61a8 8 0 0 0-7.57-10.52h-20.76a98.83 98.83 0 0 0 12.78-47.9c0-51.14-40.42-95.81-102.69-116.24-.38-.13-.8-.23-1.14-.36-3.29-1.06-6.59-2.1-10-3-2.14-.59-4.33-1.08-6.51-1.6a41 41 0 0 0 .58-6.54c0-24.09-20.87-44-47.9-47.36v-26.9l20.08 11.18a8 8 0 1 0 7.74-14L244.35 1a8 8 0 0 0-11.85 7v40.41c-27 3.35-47.91 23.27-47.91 47.36a41.78 41.78 0 0 0 .58 6.51c-1.48.35-3 .69-4.42 1.07s-3 .84-4.45 1.27c-2.74.8-5.45 1.6-8.11 2.46-1.45.48-2.88 1-4.31 1.47-2.82 1-5.58 2-8.33 3.14-1.07.43-2.15.86-3.19 1.3A152.16 152.16 0 0 0 80 171.82c-.48.8-.92 1.6-1.38 2.39-1.14 2-2.22 4-3.2 6-.65 1.32-1.27 2.64-1.87 4s-1.2 2.87-1.77 4.32c-.71 1.8-1.4 3.59-2 5.42a1.15 1.15 0 0 1-.11.31v.2a94.54 94.54 0 0 0-4.78 29 98.85 98.85 0 0 0 12.77 47.9H56.85a8 8 0 0 0-7.46 10.84zm117.62-410c22 0 39.92 14.32 39.92 31.93s-17.91 31.94-39.92 31.94-39.92-14.32-39.92-31.94 17.91-31.96 39.92-31.96zm0 79.84a57.49 57.49 0 0 0 49.8-26.29 166.64 166.64 0 0 1 10.8 2.79c2.39.69 4.79 1.44 7.12 2.22 1.13.37 2.28.72 3.4 1.12 3 1.07 6 2.21 8.91 3.4 1.37.57 2.71 1.16 4.07 1.76q2.73 1.2 5.38 2.47c1.34.64 2.68 1.27 4 1.95q4 2 7.73 4.19c1.2.69 2.33 1.43 3.49 2.14q2.4 1.48 4.79 3c1.18.8 2.4 1.6 3.52 2.39 1.75 1.25 3.47 2.52 5.13 3.83 1.27 1 2.51 2 3.73 3 1.66 1.38 3.28 2.78 4.85 4.22 1 .89 1.89 1.78 2.81 2.67 1.29 1.26 2.53 2.55 3.75 3.84.8.88 1.67 1.74 2.45 2.63 1.7 1.92 3.31 3.9 4.84 5.89.85 1.11 1.64 2.24 2.4 3.37s1.53 2.2 2.24 3.3c.85 1.3 1.69 2.61 2.46 3.93.07.11.11.21.18.31a60.85 60.85 0 0 0-28.09-6.23 64.64 64.64 0 0 0-44.92 17.72 50 50 0 0 1-69.86 0 65.75 65.75 0 0 0-89.81 0 49.28 49.28 0 0 1-34.93 14.22 48.25 48.25 0 0 1-34-13.58c.18-.45.39-.9.58-1.35a86.59 86.59 0 0 1 3.58-7.63c.9-1.69 1.78-3.39 2.79-5 .49-.8 1-1.6 1.55-2.4 1.2-1.84 2.39-3.67 3.77-5.47.44-.6.9-1.18 1.35-1.77 1.65-2.11 3.35-4.18 5.18-6.21l.7-.8A133.84 133.84 0 0 1 129.89 143l.29-.2q4.33-2.93 9-5.59l.57-.34A172.06 172.06 0 0 1 160.1 127c.68-.28 1.37-.53 2.05-.8 2.7-1.06 5.44-2.08 8.24-3 1.21-.42 2.39-.8 3.66-1.22 2.39-.8 4.88-1.51 7.36-2.21 1.31-.36 2.6-.75 3.93-1.09 1.76-.46 3.58-.84 5.38-1.25a57.49 57.49 0 0 0 49.76 26.25zM80.8 223.52A77.64 77.64 0 0 1 82 210.6a60.27 60.27 0 0 0 38.7 12.92 64.68 64.68 0 0 0 44.91-17.72 50 50 0 0 1 69.85 0 65.78 65.78 0 0 0 89.82 0 50.09 50.09 0 0 1 69.94 0c1.1.88 2.23 1.74 3.34 2.6a77.61 77.61 0 0 1 1.58 15.12 83.76 83.76 0 0 1-15.55 47.9H96.34a85.1 85.1 0 0 1-15.54-47.9zM413 287.39L354.09 463H135.8L68.46 287.39z"/><path d="M240.48 431.1a8 8 0 0 0 8-8v-31.92a8 8 0 1 0-16 0v31.93a8 8 0 0 0 8 7.99zM185.43 426.68a8 8 0 1 0 14.29-7.14l-16-31.93a8 8 0 1 0-14.29 7.13zM284.82 430.3a8 8 0 0 0 10.71-3.58l16-31.94a8 8 0 0 0-14.29-7.13l-16 31.94a8 8 0 0 0 3.58 10.71z"/></svg>