<svg xmlns="http://www.w3.org/2000/svg" viewBox="0 0 480 480" width="24" height="24"><path d="M56 480h272a8 8 0 0 0 8-8V166.64a8.1 8.1 0 0 0-.87-3.64l-32-62.64A8 8 0 0 0 296 96h-96V56a40.05 40.05 0 0 1 40-40h112a40.05 40.05 0 0 1 40 40v176h-8a8 8 0 0 0-7.95 7.12l-8 72A8 8 0 0 0 376 320h48a8 8 0 0 0 7.95-8.88l-8-72A8 8 0 0 0 416 232h-8V56a56.07 56.07 0 0 0-56-56H240a56.07 56.07 0 0 0-56 56v40H88a8 8 0 0 0-7.13 4.36l-32 62.64a8.1 8.1 0 0 0-.87 3.64V472a8 8 0 0 0 8 8zm359.06-176h-30.12l6.23-56h17.63zM64 168.56L92.89 112H184v32h-16a8 8 0 0 0 0 16h48a8 8 0 0 0 0-16h-16v-32h91.11L320 168.56V464H64z"/><path d="M256.54 175.24A51.89 51.89 0 0 0 220 192c-20.65 20.73-35.26 63.75-23.92 90.32a36.85 36.85 0 0 0 8.72 12.54L190 334.52l-4.72-7.08A54.44 54.44 0 0 0 190.4 288c-7.45-32.1-39.65-61.08-64.94-58.27-22 2.34-31.32 25.89-29.2 47.93 2.66 27.57 25.28 62.35 51.57 67.64a35.33 35.33 0 0 0 7 .69 33.4 33.4 0 0 0 19.42-6.24L184 354.4V424a8 8 0 0 0 16 0v-70.55l18.88-50.65a32.79 32.79 0 0 0 4.62.9 36.49 36.49 0 0 0 4.67.3 53.21 53.21 0 0 0 40.68-22.48c21.6-28.06 25.82-75.63 8.61-96a28.29 28.29 0 0 0-20.92-10.28zM151 329.6c-19-3.81-36.81-32.39-38.82-53.48-1.14-11.87 2.75-29.18 15-30.48h1.63c15.59 0 40.38 21.74 46 46.06a41.41 41.41 0 0 1-.35 20.48l-32-44.8a8 8 0 1 0-13 9.3l35.69 50A17.31 17.31 0 0 1 151 329.6zm105.15-57.85a35.67 35.67 0 0 1-30.67 16.06 3.1 3.1 0 0 1-.58-.15l30.23-60.09a8 8 0 0 0-14.3-7.2l-29 57.6q-.6-1-1.11-2c-8.63-20.21 4.17-56.32 20.53-72.73a37.52 37.52 0 0 1 23.95-12.04h.67a12.28 12.28 0 0 1 9.34 4.59c11.05 13.09 8.58 53-9 76z"/></svg>